# xmcd
# 
# Track frame offsets:
#     183
#     12568
#     25090
#     39450
#     53770
#     66215
#     78713
#     91568
#     103958
#     120418
#     133560
#     144598
#     156830
#     169088
# 
# Disc length: 2437
# 
# Revision: 1
# Processed by: cddbd v1.5.2PL0 Copyright (c) Steve Scherf et al.
# Submitted via: BonkEnc v1.0.6
# 
DISCID=b409830e
DTITLE=Tom Astor - Guten Morgen Deutschland
DYEAR=1990
DGENRE=Country
TTITLE0=Trucker sind Partner
TTITLE1=Junge, zieh' die Bremse an
TTITLE2=Ich bin ein Gefangener der Autobahn
TTITLE3=Ich hör' so gerne Cajun-Music
TTITLE4=Am Rande der Straße
TTITLE5=Truckstop Mama
TTITLE6=Ich bin neu geboren (Blaze of Glory)
TTITLE7=Ich bin wieder auf der Autobahn
TTITLE8=Wer die Oma nicht kennt hat die Zeit echt verpennt
TTITLE9=Ich bin Fernfahrer
TTITLE10=Hey, altes Haus
TTITLE11=Kopf hoch Mann
TTITLE12=Ich bin ein Asphalt Cowboy
TTITLE13=Gebet eines Truckers
EXTD=YEAR: 1990 ID3G: 2
EXTT0=
EXTT1=
EXTT2=
EXTT3=
EXTT4=
EXTT5=
EXTT6=
EXTT7=
EXTT8=
EXTT9=
EXTT10=
EXTT11=
EXTT12=
EXTT13=
PLAYORDER=
